<svg xmlns="http://www.w3.org/2000/svg" viewBox="0 0 140 140" id="time"><path fill="#e45647" d="M134 70c0 2-.1 3.9-.3 5.8-2.7 29.6-25.5 53.5-54.7 57.5-2.9.4-5.9.6-9 .6-35.3 0-64-28.7-64-64C6 34.7 34.7 6 70 6c35.4 0 64 28.7 64 64z"></path><path d="m103.1 45.2-7.5-6.6c-.4-.4-1-.3-1.4.1l-3.3 3.7-.1.1s0 .1-.1.1c0 .1-.1.2-.1.2-.1.3 0 .6.3.9 0 0 0 .1.1.1l2.1 2.1-1.3 1.5-16.2-16.2c-.3-.3-.6-.5-.9-.7-.2-.1-.4-.2-.7-.3-.4-.1-.8-.2-1.2-.2h-5.4c-2.2 0-4 1.8-4 4v.5c0 .3.1.5.1.7.1.3.2.5.3.7 0 .1.1.2.2.3.2.2.3.5.6.7l3.4 3.5h-1c-.5 0-.9.1-1.4.1-.3 0-.5.1-.8.1-.1 0-.3 0-.4.1-.4.1-.8.1-1.1.2-.1 0-.2 0-.3.1l-1.2.3c-.4.1-.7.2-1.1.3-.3.1-.7.2-1 .3l-1.8.6c-.3.1-.7.3-1 .4-.3.1-.6.3-.9.4-.3.1-.7.3-1 .5-.3.1-.6.3-.9.4-.6.3-1.2.6-1.8 1l-6.5-6.5c-.4-.4-1-.5-1.4-.1l-7.5 6.6c-.4.4-.5 1-.1 1.4l3.3 3.7 2.8 2.8c-.3.4-.6.7-.9 1.1-.3.4-.6.8-.8 1.2-.4.5-.7 1-1 1.6-.2.3-.3.6-.5.9-.2.4-.5.8-.7 1.3-.3.5-.5 1-.7 1.5-.2.5-.5 1-.7 1.6-.1.3-.3.7-.4 1-.1.3-.2.5-.3.8-.1.4-.2.7-.3 1.1-.1.4-.2.8-.3 1.1-.1.4-.2.8-.3 1.1-.2.9-.4 1.8-.5 2.7 0 .3-.1.6-.1.9-.1 1-.2 1.9-.2 2.9v1c0 .9 0 1.8.1 2.7.1.6.1 1.2.2 1.8.1 1.1.3 2.2.6 3.3 0 .1.1.3.1.4.1.4.2.7.3 1.1.1.2.1.4.2.7.1.5.3.9.4 1.3.1.4.3.8.4 1.2.3 1 .8 1.9 1.2 2.8.2.4.4.8.6 1.1.2.4.4.8.6 1.1.1.2.3.5.4.7.2.4.4.7.7 1.1.1.2.3.4.4.6.2.2.3.5.5.7.2.2.3.5.5.7.2.2.4.5.6.7.2.2.4.5.6.7.2.2.4.5.6.7l.6.6.6.6.6.6.7.7L79 133.4c29.2-4.1 52.1-27.9 54.7-57.5l-30.6-30.7z" opacity=".3"></path><path fill="#263a46" d="M75.6 31.2c-.3-.3-.6-.5-1-.7-.2-.1-.4-.2-.7-.3-.4-.1-.8-.2-1.2-.2h-5.4c-2.2 0-4 1.8-4 4v.5c0 .3.1.5.1.7.1.3.2.5.3.7 0 .1.1.2.2.3.2.2.3.5.6.7.7.7 1.7 1.1 2.8 1.1H69v4.3h2V38h1.7c2.2 0 4-1.8 4-4 0-1.1-.4-2.1-1.1-2.8zM72.7 36h-5.4c-1.1 0-2-.9-2-2s.9-2 2-2h5.4c1.1 0 2 .9 2 2s-.9 2-2 2z"></path><path fill="#2a414e" d="m94.2 38.7-3.3 3.7c-.4.4-.3 1 .1 1.4l7.5 6.6c.4.4 1 .3 1.4-.1l3.3-3.7c.4-.4.3-1-.1-1.4l-7.5-6.6c-.4-.4-1-.3-1.4.1z"></path><path fill="#f3f3f3" d="m89.337 50.298 3.974-4.495 2.997 2.65-3.975 4.495z"></path><path fill="#2a414e" d="m45.8 38.7 3.3 3.7c.4.4.3 1-.1 1.4l-7.5 6.6c-.4.4-1 .3-1.4-.1l-3.3-3.7c-.4-.4-.3-1 .1-1.4l7.5-6.6c.4-.4 1-.3 1.4.1z"></path><path fill="#f3f3f3" d="m43.744 48.482 2.997-2.65 3.974 4.495-2.996 2.65z"></path><circle cx="70" cy="75.1" r="34.9" fill="#314d5c"></circle><circle cx="70" cy="75.1" r="29.1" fill="#f7f8f9"></circle><path fill="#e45647" d="M70 56.4s-4.7 16.1-4.7 18.7c0 2.6 2.1 4.7 4.7 4.7s4.7-2.1 4.7-4.7c0-2.5-4.7-18.7-4.7-18.7z"></path><g fill="#939393"><path d="M68.4 49.7h3.1v4.2h-3.1zM69 96.5h3.1v4.2H69zM84.043 58.84l2.97-2.97 2.192 2.193-2.97 2.97zM51.31 92.247l2.969-2.97 2.192 2.192-2.97 2.97zM91.6 73.3h4.2v3.1h-4.2zM44.8 73.8H49v3.1h-4.2zM84.38 91.126l2.191-2.192 2.97 2.97-2.191 2.192zM50.973 58.399l2.192-2.192 2.97 2.97-2.192 2.192z"></path></g><circle cx="70" cy="75.1" r="2.6" fill="#f7f8f9"></circle></svg>