<svg xmlns="http://www.w3.org/2000/svg" viewBox="0 0 64 64" id="wrong"><circle cx="32" cy="32" r="30" fill="#e8f3ff"></circle><path fill="#2e58ff" d="M32 64a32 32 0 1 1 32-32 32 32 0 0 1-32 32Zm0-60a28 28 0 1 0 28 28A28 28 0 0 0 32 4Z"></path><path fill="#a2d0ff" d="M45.44 18.56a4 4 0 0 0-5.66 0L32 26.34l-7.78-7.78a4 4 0 0 0-5.66 5.66L26.34 32l-7.78 7.78a4 4 0 0 0 5.66 5.66L32 37.66l7.78 7.78a4 4 0 0 0 5.66-5.66L37.66 32l7.78-7.78a4 4 0 0 0 0-5.66Z"></path><path fill="#2e58ff" d="M42.61 48.61a6 6 0 0 1-4.25-1.76L32 40.49l-6.36 6.36a6 6 0 1 1-8.49-8.49L23.51 32l-6.36-6.36a6 6 0 1 1 8.49-8.49L32 23.51l6.36-6.36a6 6 0 1 1 8.49 8.49L40.49 32l6.36 6.36a6 6 0 0 1-4.24 10.25ZM32 35.66c1.13 0 .75-.08 9.19 8.36a2 2 0 0 0 3.42-1.41c0-1.16-.15-1-8.37-9.2a2 2 0 0 1 0-2.82L44 22.81A2 2 0 1 0 41.19 20l-7.78 7.78a2 2 0 0 1-2.82 0L22.81 20A2 2 0 0 0 20 20a2 2 0 0 0 0 2.83l7.78 7.78a2 2 0 0 1 0 2.82c-8.59 8.59-8.37 8.08-8.37 9.2a2 2 0 0 0 3.4 1.37c8.56-8.54 8.07-8.34 9.19-8.34Z"></path></svg>